<?xml version="1.0" encoding="utf-8"?>
<!-- Generator: Adobe Illustrator 19.0.0, SVG Export Plug-In . SVG Version: 6.00 Build 0)  -->
<svg version="1.1" id="Layer_1" xmlns="http://www.w3.org/2000/svg" xmlns:xlink="http://www.w3.org/1999/xlink" x="0px" y="0px"
	 viewBox="-94 -110.5 721.6 477.2" style="enable-background:new -94 -110.5 721.6 477.2;" xml:space="preserve">
<style type="text/css">
	.st0{fill:none;stroke:#6CA442;stroke-width:22;stroke-miterlimit:10;}
	.st1{fill:none;stroke:#F26939;stroke-width:6;stroke-miterlimit:10;}
	.st2{fill:none;stroke:#F26939;stroke-width:22;stroke-miterlimit:10;}
	.st3{fill:none;stroke:#6CA442;stroke-width:8;stroke-miterlimit:10;}
	.st4{fill:none;stroke:#2B5BA7;stroke-width:8;stroke-miterlimit:10;}
	.st5{fill:none;stroke:#181818;stroke-width:12;stroke-miterlimit:10;}
	.st6{fill:#191919;}
	.st7{fill:#171717;}
	.st8{fill:none;stroke:#171717;stroke-width:7;stroke-miterlimit:10;}
	.st9{fill:#FFFFFF;}
	.st10{opacity:0.72;fill:#B0CFF4;enable-background:new    ;}
	.st11{fill:none;stroke:#2859A6;stroke-width:4;stroke-miterlimit:10;}
	.st12{fill:#EFEA45;}
	.st13{fill:#F2693A;}
	.st14{fill:#6CA442;}
	.st15{fill:#27AAE1;}
	.st16{opacity:0.9;fill:#FFFFFF;enable-background:new    ;}
	.st17{opacity:0.73;fill:#3FC5F3;enable-background:new    ;}
	.st18{opacity:0.73;}
	.st19{fill:#3FC5F3;}
	.st20{fill:#2859A6;}
	.st21{fill:#F2683B;}
	.st22{fill:none;stroke:#F2683B;stroke-width:3;stroke-miterlimit:10;}
	.st23{fill:none;stroke:#6CA442;stroke-width:4;stroke-miterlimit:10;}
	.st24{fill:none;stroke:#F2683B;stroke-width:4;stroke-miterlimit:10;}
	.st25{fill:none;stroke:#F2683B;stroke-width:5;stroke-miterlimit:10;}
	.st26{fill:none;stroke:#2859A6;stroke-width:5;stroke-miterlimit:10;}
	.st27{fill:none;stroke:#2859A6;stroke-width:3;stroke-miterlimit:10;}
	.st28{fill:none;stroke:#F2683B;stroke-width:7;stroke-miterlimit:10;}
	.st29{fill:#EAE71F;}
	.st30{fill:#ED664D;}
	.st31{fill:none;stroke:#9B9B9B;stroke-miterlimit:10;stroke-dasharray:7.8603,7.8603;}
	.st32{fill:none;stroke:#2859A6;stroke-width:2;stroke-miterlimit:10;}
	.st33{fill:none;stroke:#000000;stroke-width:2;stroke-miterlimit:10;}
</style>
<g id="circle">
	<path id="XMLID_112_" class="st0" d="M478.2-7.4C529.6,39.9,543,115,513.4,176.4"/>
	<path id="XMLID_111_" class="st1" d="M484.8-35.4C529-7.3,555,40,557.4,89.5"/>
	<path id="XMLID_110_" class="st2" d="M252.9,36c3.3-5.5,6.9-10.9,11-16.1c15.2-19.5,34-34.5,54.8-44.7"/>
	<path id="XMLID_109_" class="st3" d="M276,38.8c3.8-5.2,8-10.1,12.4-14.9c17-17.9,37.2-31.1,58.8-39.2"/>
	<path id="XMLID_143_" class="st4" d="M535.9,189.3c-2.9,5.7-6.2,11.3-9.9,16.7c-13.9,20.4-31.7,36.6-51.8,48.1"/>
	<path id="XMLID_108_" class="st5" d="M227.4,82.7c4-25.8,14.5-51,31.8-73.1c53.7-68.2,152.5-80,220.7-26.3s80,152.5,26.3,220.7
		c-16.8,21.3-38,37.1-61.3,47.1"/>
</g>
<g id="pc">
	<path id="XMLID_36_" class="st6" d="M69,171.6V36c0-9.3,7.6-16.9,16.9-16.9H466c9.3,0,16.9,7.6,16.9,16.9v236.8
		c0,9.3-7.6,16.9-16.9,16.9H85.7c-9.3,0-16.9-7.6-16.9-16.9L69,171.6"/>
	<path id="XMLID_35_" class="st7" d="M348.9,347.6c-48.5,0-97,0-145.5,0c5.6-19.3,11.3-38.6,16.9-57.9H334
		C339,309,343.9,328.3,348.9,347.6z"/>
	<line id="XMLID_34_" class="st8" x1="184.9" y1="349.4" x2="364.9" y2="349.4"/>
	<polyline id="XMLID_33_" class="st9" points="462.9,63.5 462.9,260.5 86.4,260.5 86.4,41.7 462.9,41.7 462.9,63.5 	"/>
	<g id="XMLID_47_">
		<rect id="XMLID_42_" x="89.7" y="44.7" class="st10" width="369.3" height="213.2"/>
		<g id="lines">
			<line id="XMLID_8_" class="st11" x1="115.9" y1="97.7" x2="140.5" y2="100.4"/>
			<line id="XMLID_9_" class="st11" x1="158.2" y1="114.5" x2="164.7" y2="134.5"/>
			<line id="XMLID_11_" class="st11" x1="162.2" y1="90.8" x2="175.6" y2="79.5"/>
			<line id="XMLID_12_" class="st11" x1="176.9" y1="148" x2="201.8" y2="150.6"/>
			<line id="XMLID_13_" class="st11" x1="220.4" y1="143.3" x2="234.3" y2="128.7"/>
			<line id="XMLID_14_" class="st11" x1="237.3" y1="113.7" x2="228.1" y2="95.7"/>
			<line id="XMLID_15_" class="st11" x1="189.8" y1="74.2" x2="215.8" y2="79.5"/>
			<line id="XMLID_16_" class="st11" x1="230.7" y1="81.8" x2="248.8" y2="70.6"/>
			<line id="XMLID_18_" class="st11" x1="244.7" y1="123.3" x2="268.7" y2="127.6"/>
			<g id="circles">
				<circle id="XMLID_1_" class="st12" cx="107.7" cy="95.7" r="9.2"/>
				<circle id="XMLID_17_" class="st13" cx="254.9" cy="66.6" r="7.4"/>
				<circle id="XMLID_19_" class="st14" cx="276.8" cy="129" r="9.4"/>
				<circle id="XMLID_7_" class="st13" cx="239.6" cy="121.2" r="9.2"/>
				<circle id="XMLID_3_" class="st14" cx="168.8" cy="143.3" r="10.6"/>
				<circle id="XMLID_5_" class="st13" cx="211.9" cy="149.6" r="10.6"/>
				<circle id="XMLID_10_" class="st14" cx="222.8" cy="86.6" r="10.6"/>
				<circle id="XMLID_6_" class="st12" cx="182.2" cy="74.2" r="8.6"/>
				<circle id="XMLID_4_" class="st13" cx="154.2" cy="101.4" r="13.7"/>
			</g>
		</g>
		<g id="XMLID_20_">
			<rect id="XMLID_2_" x="96.5" y="185.2" class="st15" width="4" height="65"/>
			<rect id="XMLID_21_" x="109" y="205.7" class="st15" width="4" height="44.5"/>
			<rect id="XMLID_23_" x="121" y="185.7" class="st15" width="4" height="65"/>
			<rect id="XMLID_22_" x="133.5" y="206.2" class="st15" width="4" height="44.5"/>
			<rect id="XMLID_25_" x="157.5" y="231.7" class="st15" width="4" height="19.5"/>
			<rect id="XMLID_24_" x="145" y="223.2" class="st15" width="4" height="28"/>
			<rect id="XMLID_28_" x="170" y="206.2" class="st15" width="4" height="44.5"/>
			<rect id="XMLID_27_" x="194" y="231.7" class="st15" width="4" height="19.5"/>
			<rect id="XMLID_26_" x="181.5" y="223.2" class="st15" width="4" height="28"/>
			<rect id="XMLID_41_" x="206.1" y="185" class="st15" width="4" height="65"/>
			<rect id="XMLID_40_" x="218.6" y="205.5" class="st15" width="4" height="44.5"/>
			<rect id="XMLID_39_" x="230.6" y="185.5" class="st15" width="4" height="65"/>
			<rect id="XMLID_38_" x="243.1" y="206" class="st15" width="4" height="44.5"/>
			<rect id="XMLID_37_" x="267.1" y="231.5" class="st15" width="4" height="19.5"/>
			<rect id="XMLID_32_" x="254.6" y="223" class="st15" width="4" height="28"/>
			<rect id="XMLID_31_" x="279.6" y="206" class="st15" width="4" height="44.5"/>
			<rect id="XMLID_29_" x="291.1" y="223" class="st15" width="4" height="28"/>
		</g>
	</g>
	<g id="form">
		<rect id="XMLID_43_" x="308.6" y="51.7" class="st16" width="143.4" height="199.6"/>
		<rect id="XMLID_30_" x="318.6" y="200.3" class="st17" width="57" height="41"/>
		<rect id="XMLID_45_" x="383.2" y="200.3" class="st17" width="57.9" height="41"/>
		<g id="lines_3_" class="st18">
			<path id="XMLID_58_" class="st19" d="M440.7,156.9H320c-0.7,0-1.2-0.3-1.2-0.8v-4.5c0-0.4,0.5-0.8,1.2-0.8h120.6
				c0.7,0,1.2,0.3,1.2,0.8v4.5C441.8,156.4,441.2,156.9,440.7,156.9z"/>
			<path id="XMLID_57_" class="st13" d="M440.7,167.2H320c-0.7,0-1.2-0.3-1.2-0.8v-4.5c0-0.4,0.5-0.8,1.2-0.8h120.6
				c0.7,0,1.2,0.3,1.2,0.8v4.5C441.8,166.8,441.2,167.2,440.7,167.2z"/>
			<path id="XMLID_56_" class="st19" d="M440.7,188.6H320c-0.7,0-1.2-0.3-1.2-0.8v-4.5c0-0.4,0.5-0.8,1.2-0.8h120.6
				c0.7,0,1.2,0.3,1.2,0.8v4.5C441.8,188.1,441.2,188.6,440.7,188.6z"/>
			<path id="XMLID_54_" class="st19" d="M376.4,178.2h-56.5c-0.7,0-1.2-0.3-1.2-0.8v-4.5c0-0.4,0.5-0.8,1.2-0.8h56.5
				c0.7,0,1.2,0.3,1.2,0.8v4.5C377.7,177.8,377.1,178.2,376.4,178.2z"/>
		</g>
		<g id="lines_1_" class="st18">
			<path id="XMLID_51_" class="st19" d="M395.7,110.4v-2.5c0-0.2,0.2-0.4,0.4-0.4h44.5c0.2,0,0.4,0.2,0.4,0.4v2.5
				c0,0.2-0.2,0.4-0.4,0.4h-44.5C395.9,110.9,395.7,110.6,395.7,110.4z"/>
			<path id="XMLID_50_" class="st13" d="M395.7,116.3v-2.5c0-0.2,0.2-0.4,0.4-0.4h44.5c0.2,0,0.4,0.2,0.4,0.4v2.5
				c0,0.2-0.2,0.4-0.4,0.4h-44.5C395.9,116.7,395.7,116.5,395.7,116.3z"/>
			<path id="XMLID_49_" class="st19" d="M395.7,128.4v-2.5c0-0.2,0.2-0.4,0.4-0.4h44.5c0.2,0,0.4,0.2,0.4,0.4v2.5
				c0,0.2-0.2,0.4-0.4,0.4h-44.5C395.9,128.8,395.7,128.5,395.7,128.4z"/>
			<path id="XMLID_48_" class="st19" d="M419.4,122.5V120c0-0.2,0.2-0.4,0.4-0.4h20.8c0.2,0,0.4,0.2,0.4,0.4v2.5
				c0,0.2-0.2,0.4-0.4,0.4h-20.8C419.6,122.9,419.4,122.7,419.4,122.5z"/>
		</g>
		<circle id="XMLID_46_" class="st13" cx="354.5" cy="101.3" r="36.7"/>
	</g>
</g>
<g>
	<path class="st20" d="M-19.6,4.1l-17.9,0.2c-0.6,0-1.1-0.4-1.2-1V3c0-0.6,0.4-1.1,1-1.2l17.9-0.2c0.6,0,1.1,0.4,1.2,1v0.3
		C-18.5,3.7-19,4.2-19.6,4.1z"/>
	<path class="st21" d="M-21.3,8.7l-14.4,0.1c-0.6,0-1.1-0.4-1.2-1V7.5c0-0.6,0.4-1.1,1-1.2l14.4-0.1c0.6,0,1.1,0.4,1.2,1v0.3
		C-20.2,8.2-20.7,8.7-21.3,8.7z"/>
	<path class="st20" d="M-24.7,13l-7.5,0.1c-0.6,0-1.1-0.4-1.2-1v-0.3c0-0.6,0.4-1.1,1-1.2l7.5-0.1c0.6,0,1.1,0.4,1.2,1v0.3
		C-23.6,12.6-24.1,13.1-24.7,13z"/>
	<path class="st20" d="M-17.8-0.7l-21,0.3c-0.6,0-1.1-0.4-1.2-1v-0.3c0-0.6,0.4-1.1,1-1.2l21-0.3c0.6,0,1.1,0.4,1.2,1v0.3
		C-16.7-1.3-17.2-0.8-17.8-0.7z"/>
	<path class="st20" d="M-18.9,75.3l-17.9,0.2c-0.6,0-1.1,0.6-1,1.2V77c0,0.6,0.6,1.1,1.2,1l17.9-0.2c0.6,0,1.1-0.6,1-1.2v-0.3
		C-17.8,75.8-18.3,75.2-18.9,75.3z"/>
	<path class="st21" d="M-20.7,70.8l-14.4,0.1c-0.6,0-1.1,0.6-1,1.2v0.3c0,0.6,0.6,1.1,1.2,1l14.4-0.1c0.6,0,1.1-0.6,1-1.2v-0.3
		C-19.5,71.3-20.1,70.8-20.7,70.8z"/>
	<path class="st20" d="M-24.2,66.5l-7.5,0.1c-0.6,0-1.1,0.6-1,1.2v0.3c0,0.6,0.6,1.1,1.2,1L-24,69c0.6,0,1.1-0.6,1-1.2v-0.3
		C-23,67-23.6,66.5-24.2,66.5z"/>
	<path class="st20" d="M-16.9,80.1l-21,0.3c-0.6,0-1.1,0.6-1,1.2v0.3c0,0.6,0.6,1.1,1.2,1l21-0.3c0.6,0,1.1-0.6,1-1.2v-0.3
		C-15.8,80.6-16.3,80.1-16.9,80.1z"/>
	<path class="st20" d="M-19.1,33.9L-37,34.1c-0.6,0-1.1,0.6-1,1.2v0.3c0,0.6,0.6,1.1,1.2,1l17.9-0.2c0.6,0,1.1-0.6,1-1.2v-0.3
		C-18,34.3-18.5,33.9-19.1,33.9z"/>
	<path class="st20" d="M-20.9,29.4l-14.4,0.1c-0.6,0-1.1,0.6-1,1.2V31c0,0.6,0.6,1.1,1.2,1l14.4-0.1c0.6,0,1.1-0.6,1-1.2v-0.3
		C-19.8,29.8-20.3,29.3-20.9,29.4z"/>
	<path class="st20" d="M-24.4,25.1l-7.5,0.1c-0.6,0-1.1,0.6-1,1.2v0.3c0,0.6,0.6,1.1,1.2,1l7.5-0.1c0.6,0,1.1-0.6,1-1.2v-0.3
		C-23.3,25.6-23.8,25.1-24.4,25.1z"/>
	<path class="st20" d="M-18.9,45.9l-17.9,0.2c-0.6,0-1.1-0.4-1.2-1v-0.3c0-0.6,0.4-1.1,1-1.2l17.9-0.2c0.6,0,1.1,0.4,1.2,1v0.3
		C-17.9,45.3-18.3,45.9-18.9,45.9z"/>
	<path class="st20" d="M-20.7,50.4l-14.4,0.1c-0.6,0-1.1-0.4-1.2-1v-0.3c0-0.6,0.4-1.1,1-1.2l14.4-0.1c0.6,0,1.1,0.4,1.2,1v0.3
		C-19.6,49.9-20,50.5-20.7,50.4z"/>
	<path class="st20" d="M-24.1,54.8l-7.5,0.1c-0.6,0-1.1-0.4-1.2-1v-0.3c0-0.6,0.4-1.1,1-1.2l7.5-0.1c0.6,0,1.1,0.4,1.2,1v0.3
		C-22.9,54.2-23.5,54.8-24.1,54.8z"/>
	<path class="st21" d="M-17.1,38.8l-21,0.3c-0.6,0-1.1,0.6-1,1.2v0.3c0,0.6,0.6,1.1,1.2,1l21-0.3c0.6,0,1.1-0.6,1-1.2v-0.3
		C-16.1,39.2-16.5,38.7-17.1,38.8z"/>
	<path class="st22" d="M-43.3-3.6c0,0-1.3,13.3,20.1,27c3.2,2,5.9,4.8,7.7,8.3c3.7,7.2,4.9,19-15.3,31.5c0,0-13,7.4-11.2,22.1"/>
	<path class="st22" d="M-14.1-4.1c0,0,1.7,13.3-19.4,27.5c-3.2,2.2-5.8,5-7.4,8.4c-3.6,7.2-4.4,19,16.1,31c0,0,13.1,7,11.8,21.8"/>
	<g>
		<path class="st11" d="M-11.3,8.7C-6.1,8.6-0.9,8.6,4.4,8.5C7.8,5.7,11.2,3,14.5,0.3"/>
		<path class="st11" d="M-8.9,69.8c5.2-0.1,10.4-0.1,15.7-0.2c3.5,2.6,6.9,5.4,10.4,8"/>
		<path class="st11" d="M-10.2,28.7c5.2-0.1,10.4-0.1,15.7-0.2"/>
		<path class="st11" d="M-9.7,51.1C-4.5,51,0.7,51,6,50.9"/>
		<path class="st23" d="M18.8,2.2l-1.2,0.1c-2.3,0-4.1-1.9-4.2-4.1l-0.1-1c0-2.3,1.9-4.1,4.1-4.2l1.2-0.1c2.3,0,4.1,1.9,4.2,4.1
			l0.1,1C22.9,0.3,21.1,2.2,18.8,2.2z"/>
		<path class="st24" d="M11.5,33.7l-1.2,0.1c-2.3,0-4.1-1.9-4.2-4.1l-0.1-1c0-2.3,1.9-4.1,4.1-4.2l1.2-0.1c2.3,0,4.1,1.9,4.2,4.1
			l0.1,1C15.6,31.7,13.7,33.5,11.5,33.7z"/>
		<path class="st24" d="M10.7,55.7l-1.2,0.1c-2.3,0-4.1-1.9-4.2-4.1l-0.1-1c0-2.3,1.9-4.1,4.1-4.2l1.2-0.1c2.3,0,4.1,1.9,4.2,4.1
			l0.1,1C14.8,53.8,12.9,55.6,10.7,55.7z"/>
		<path class="st23" d="M21.6,85l-1.2,0.1c-2.3,0-4.1-1.9-4.2-4.1l-0.1-1c0-2.3,1.9-4.1,4.1-4.2l1.2-0.1c2.3,0,4.1,1.9,4.2,4.1
			l0.1,1C25.8,83.1,23.9,85,21.6,85z"/>
		<path class="st11" d="M-45.8,10.4c-5.2,0.1-10.4,0.1-15.7,0.2c-3.5-2.6-6.9-5.4-10.4-8"/>
		<path class="st11" d="M-46.5,71.6c-5.2,0.1-10.4,0.1-15.7,0.2c-3.4,2.8-6.8,5.5-10.1,8.2"/>
		<path class="st11" d="M-46.3,30.5c-5.2,0.1-10.4,0.1-15.7,0.2"/>
		<path class="st11" d="M-46.2,52.8c-5.2,0.1-10.4,0.1-15.7,0.2"/>
		<path class="st23" d="M-76,4.7l1.2-0.1c2.3,0,4.1-1.9,4.1-4.2l-0.1-1c0-2.3-1.9-4.1-4.2-4.1l-1.2,0.1c-2.3,0-4.1,1.9-4.1,4.2
			l0.1,1C-80.1,3-78.3,4.8-76,4.7z"/>
		<path class="st24" d="M-67.8,36l1.2-0.1c2.3,0,4.1-1.9,4.1-4.2l-0.1-1c0-2.3-1.9-4.1-4.2-4.1l-1.2,0.1c-2.3,0-4.1,1.9-4.1,4.2
			l0.1,1C-72,34.1-70.1,36-67.8,36z"/>
		<path class="st24" d="M-66.5,58.1l1.2-0.1c2.3,0,4.1-1.9,4.1-4.2l-0.1-1c0-2.3-1.9-4.1-4.2-4.1l-1.2,0.1c-2.3,0-4.1,1.9-4.1,4.2
			l0.1,1C-70.7,56.2-68.8,58.1-66.5,58.1z"/>
		<path class="st23" d="M-76.7,87.6l1.2-0.1c2.3,0,4.1-1.9,4.1-4.2l-0.1-1c0-2.3-1.9-4.1-4.2-4.1l-1.2,0.1c-2.3,0-4.1,1.9-4.1,4.2
			l0.1,1C-80.8,85.8-79,87.6-76.7,87.6z"/>
	</g>
</g>
<g id="circuit">
	<g>
		<path id="XMLID_65_" class="st25" d="M-40,300.1c-16.4-8.2-27.7-25.2-27.7-44.8c0-21.1,13.1-39.2,31.6-46.6"/>
		<path id="XMLID_64_" class="st25" d="M-21.2,205.4c1.2-0.1,2.5-0.2,3.7-0.2c27.6,0,50.1,22.4,50.1,50.1S10,305.4-17.6,305.4
			c-4,0-8-0.5-11.7-1.4"/>
		<path id="XMLID_63_" class="st26" d="M20.3,275.6C13,289-1.3,298.2-17.6,298.2c-23.8,0-43.1-19.3-43.1-43.1S-41.4,212-17.6,212
			c23.8,0,43.1,19.3,43.1,43.1c0,1.9-0.2,3.8-0.4,5.7"/>
	</g>
	<g>
		<circle id="XMLID_52_" class="st25" cx="-17.6" cy="253.7" r="9.7"/>
		<path id="XMLID_55_" class="st24" d="M-28,240.8c-0.7,0.5-6.5,4.7-6.7,12.2c-0.2,6.3,3.7,10.4,4.5,11.1"/>
		<path id="XMLID_59_" class="st24" d="M-28.2,252.7c-1.9,0-3.8-0.1-5.7-0.1"/>
		<path id="XMLID_61_" class="st24" d="M-3,261.3c-1.8-0.8-3.5-1.5-5.3-2.2"/>
		<path id="XMLID_60_" class="st24" d="M-1.8,254.7c0.2,1.2,0.7,4.7-1.4,8.4c-1.3,2.3-3,3.7-4,4.4"/>
		<path id="XMLID_53_" class="st27" d="M1.9,266.9c-0.4,1.1-1.8,4.4-5.4,6.5c-2.3,1.4-4.5,1.7-5.7,1.7"/>
		<path id="XMLID_62_" class="st27" d="M-29.8,231.7c-0.5,0.3-12.2,6.9-12.6,20c-0.3,10.7,7.1,17.3,8.2,18.3"/>
		<path id="XMLID_44_" class="st27" d="M8.6,246.7L8.6,246.7c-1.6,1.3-4,0.9-5.2-0.7l-7.3-9.5c-1.3-1.6-0.9-4,0.7-5.2l0,0
			c1.6-1.3,4-0.9,5.2,0.7l7.3,9.5C10.5,243.1,10.2,245.5,8.6,246.7z"/>
		<path id="XMLID_67_" class="st22" d="M-24.8,287.6L-24.8,287.6c-1.1,1.8-3.3,2.4-5.1,1.3l-6.8-4c-1.8-1.1-2.4-3.3-1.3-5.1l0,0
			c1.1-1.8,3.3-2.4,5.1-1.3l6.8,4C-24.4,283.6-23.7,285.9-24.8,287.6z"/>
		<circle id="XMLID_66_" class="st22" cx="-18.5" cy="226.2" r="3.7"/>
		<path id="XMLID_68_" class="st20" d="M-1.7,239.2L-1.7,239.2c-0.5-0.5-0.4-1.2,0.1-1.7l1.2-1.1c0.5-0.5,1.2-0.4,1.7,0.1l0,0
			c0.5,0.5,0.4,1.2-0.1,1.7L0,239.3C-0.5,239.7-1.2,239.7-1.7,239.2z"/>
		<path id="XMLID_70_" class="st20" d="M3.7,240.4L3.7,240.4c-0.5-0.5-0.4-1.2,0.1-1.7l1.2-1.1c0.5-0.5,1.2-0.4,1.7,0.1l0,0
			c0.5,0.5,0.4,1.2-0.1,1.7l-1.2,1.1C4.8,240.9,4.1,240.9,3.7,240.4z"/>
		<path id="XMLID_72_" class="st21" d="M-35.7,285.6L-35.7,285.6c-0.6-0.3-0.8-1-0.5-1.6l0.7-1.4c0.3-0.6,1-0.8,1.6-0.5l0,0
			c0.6,0.3,0.8,1,0.5,1.6l-0.7,1.4C-34.4,285.7-35.1,285.9-35.7,285.6z"/>
		<path id="XMLID_71_" class="st21" d="M-30,284.8L-30,284.8c-0.6-0.4-0.8-1.1-0.4-1.6l0.8-1.4c0.4-0.6,1.1-0.8,1.6-0.4l0,0
			c0.6,0.4,0.8,1.1,0.4,1.6l-0.8,1.4C-28.7,284.9-29.5,285.1-30,284.8z"/>
		<circle id="XMLID_69_" class="st21" cx="-19.4" cy="276.7" r="2"/>
		<circle id="XMLID_75_" class="st20" cx="-31.4" cy="221.8" r="2"/>
		<circle id="XMLID_74_" class="st20" cx="9.4" cy="265.6" r="3.2"/>
	</g>
	<g id="wire">
		<path id="XMLID_73_" class="st26" d="M-3.8,306.7c1.2,2.8,8.6,19.6,27,25.7c16.5,5.5,35.4,0.2,48.1-13.5"/>
		<path id="XMLID_76_" class="st28" d="M69.8,313.7c2.3,2,4.5,4,6.8,5.9"/>
		<path id="XMLID_77_" class="st11" d="M80.1,315.9l-9-7.2c-0.9-0.8-1.1-2.1-0.3-3l2.5-3.1c0.8-0.9,2.1-1.1,3-0.3l9,7.2
			c0.9,0.8,1.1,2.1,0.3,3l-2.5,3.1C82.3,316.5,81,316.6,80.1,315.9z"/>
		<circle class="st21" cx="82.2" cy="300.5" r="1.8"/>
		<circle class="st21" cx="86.1" cy="303.9" r="1.8"/>
		<polyline class="st11" points="75.3,301.8 81.4,294.4 92.1,303.5 86.6,309.9 		"/>
	</g>
</g>
<g id="XMLID_78_">
	<circle id="XMLID_81_" class="st25" cx="558.6" cy="258.1" r="31.7"/>
	<path id="XMLID_80_" class="st25" d="M606.5,306L606.5,306c-2.1,2.1-5.3,2.1-7.4,0l-12.6-12.6c-2.1-2.1-2.1-5.3,0-7.4l0,0
		c2.1-2.1,5.3-2.1,7.4,0l12.6,12.6C608.6,300.7,608.6,304.1,606.5,306z"/>
	<line id="XMLID_79_" class="st25" x1="586.8" y1="286.5" x2="579.6" y2="279.7"/>
	<g>
		<path class="st14" d="M545.2,252.3c-5.4,5.4-5.4,14.2,0,19.7c2.7,2.7,6.3,4.1,9.8,4.1s7.1-1.4,9.8-4.1c6.9-6.9,8-27.7,8-27.7
			S552.1,245.4,545.2,252.3z M562,269.2c-1.9,1.9-4.4,2.9-7,2.9c-1.8,0-3.4-0.5-4.9-1.4c1.8-5.7,5.2-10.8,9.7-14.5
			c-5.2,2.7-9.6,6.9-12.7,11.9c-2.9-3.9-2.7-9.4,0.9-13c3.5-3.5,13.1-5.6,20.5-6.5C567.6,256.1,565.5,265.7,562,269.2z"/>
	</g>
</g>
<circle id="XMLID_83_" class="st14" cx="48.2" cy="167.2" r="6.6"/>
<circle id="XMLID_86_" class="st14" cx="608.1" cy="115.1" r="6.6"/>
<circle id="XMLID_88_" class="st11" cx="590.3" cy="121.2" r="6.6"/>
<circle id="XMLID_106_" class="st14" cx="221.2" cy="-84.8" r="6.6"/>
<circle id="XMLID_84_" class="st14" cx="95" cy="-31.2" r="6.6"/>
<circle id="XMLID_102_" class="st29" cx="405.6" cy="-17.1" r="6.6"/>
<circle id="XMLID_101_" class="st29" cx="95.6" cy="-62.4" r="6.6"/>
<circle id="XMLID_85_" class="st29" cx="-38.4" cy="129" r="6.6"/>
<circle id="XMLID_107_" class="st29" cx="586.8" cy="139" r="6.6"/>
<circle id="XMLID_82_" class="st30" cx="516.3" cy="268.7" r="6.6"/>
<circle id="XMLID_103_" class="st30" cx="67.9" cy="-47.6" r="6.6"/>
<circle id="XMLID_87_" class="st30" cx="579.6" cy="107.5" r="6.6"/>
<line id="XMLID_92_" class="st31" x1="-13.5" y1="143.3" x2="-13.5" y2="202.2"/>
<line id="XMLID_100_" class="st31" x1="222.5" y1="-68.9" x2="222.5" y2="21.5"/>
<line id="XMLID_94_" class="st31" x1="412.1" y1="289.4" x2="412.1" y2="329.9"/>
<line id="XMLID_95_" class="st31" x1="561.8" y1="293.4" x2="561.8" y2="330.7"/>
<line id="XMLID_96_" class="st31" x1="545.1" y1="130.4" x2="545.1" y2="225.8"/>
<line id="XMLID_89_" class="st31" x1="-13.7" y1="142.5" x2="68.8" y2="142.5"/>
<line id="XMLID_99_" class="st31" x1="159.1" y1="-25.7" x2="222.8" y2="-25.7"/>
<line id="XMLID_105_" class="st31" x1="224" y1="-45.5" x2="287.7" y2="-45.5"/>
<line id="XMLID_93_" class="st31" x1="412.2" y1="329.9" x2="569.7" y2="329.9"/>
<line id="XMLID_90_" class="st31" x1="15.9" y1="50.6" x2="69" y2="50.6"/>
<g>
	<path class="st11" d="M155.6-56.5v47.9c0,4.6-3.7,8.3-8.3,8.3h-0.8c-4.6,0-8.3-3.7-8.3-8.3v-47.9"/>
	<rect x="134.5" y="-60.2" class="st11" width="24.9" height="5.1"/>
	<line class="st32" x1="150.5" y1="-50.1" x2="150.5" y2="-32.7"/>
	<path class="st32" d="M141.8-10.1c0.1,2.6,2.2,4.8,4.9,4.8c2.6,0,4.9-2.1,4.9-4.8c0-3.3,0-6.6,0-9.9"/>
</g>
<line class="st33" x1="74.5" y1="-50.6" x2="89.7" y2="-58.8"/>
<line class="st33" x1="71.7" y1="-41.1" x2="87.2" y2="-33.5"/>
<line class="st33" x1="95.3" y1="-55.8" x2="95.2" y2="-38.5"/>
<g>
	<line class="st32" x1="296.6" y1="-69.1" x2="292" y2="-62"/>
	<line class="st32" x1="305" y1="-67.1" x2="296.8" y2="-69.1"/>
	<line class="st32" x1="296.8" y1="-68.3" x2="293.3" y2="-76"/>
	<polygon class="st32" points="281.8,-76 276.1,-85.9 281.8,-95.8 293.2,-95.8 299,-85.9 293.2,-76 	"/>
	<polygon class="st32" points="308.6,-56 305.1,-66.8 312.7,-75.3 323.9,-73 327.4,-62.1 319.8,-53.6 	"/>
	<polygon class="st32" points="280.3,-42.2 274.6,-52.1 280.3,-62 291.7,-62 297.4,-52.1 291.7,-42.2 	"/>
</g>
</svg>
